:FULLY-SPECIFIED
:FORCE-ALL-JOINTS-BE-3DOF
:DEGREES
170
root 6.49928 16.092 -25.659 3.82762 29.2319 1.38755
lfemur -25.951 30.7898 -15.9829
ltibia 42.02 0 0
lfoot -9.06353 8.66365 0
ltoes 8.39889 0 0
rfemur -20.257 -3.57197 -5.12374
rtibia 59.0594 0 0
rfoot 6.48988 -26.0773 0
rtoes 42.5313 0 0
lowerback 1.27044 -4.73327 -1.24492
upperback 0.0420772 -6.34219 -2.58928
thorax -0.806515 -3.16698 -1.82347
lowerneck -9.46891 -7.42848 -1.41316
upperneck 1.81241 -9.99493 5.32396
head 2.59599 -4.81212 1.42383
lclavicle -9.09445e-14 3.93152e-15 0
lhumerus -50.0371 -41.651 115.59
lradius 52.2275 0 0
lwrist 15.2148 0 0
lhand 37.4228 28.4237 0
lfingers 7.12502 0 0
lthumb 60.2243 41.9484 0
rclavicle -9.09445e-14 3.93152e-15 0
rhumerus -48.8554 -12.0893 -81.0301
rradius 89.7103 0 0
rwrist -4.03012 0 0
rhand -40.9267 -50.018 0
rfingers 7.12502 0 0
rthumb -13.8577 -439.468 0
171
root 6.43439 16.0923 -25.635 3.92591 28.3984 1.35666
lfemur -25.4329 29.3236 -14.3164
ltibia 41.9368 0 0
lfoot -10.4173 6.06913 0
ltoes 3.10599 0 0
rfemur -19.3962 -3.81332 -5.17385
rtibia 56.6572 0 0
rfoot 4.18823 -26.3336 0
rtoes 42.7312 0 0
lowerback 0.941057 -4.39671 -1.06111
upperback 0.0223058 -5.88441 -2.87948
thorax -0.668916 -2.93913 -2.25361
lowerneck -9.53196 -7.4325 -1.07894
upperneck 1.94954 -10.0485 5.34718
head 2.63675 -4.83054 1.36749
lclavicle -8.26451e-14 4.73549e-15 0
lhumerus -50.5346 -41.9342 115.687
lradius 52.1737 0 0
lwrist 15.1073 0 0
lhand 37.7632 28.3988 0
lfingers 7.12502 0 0
lthumb 60.5126 41.5993 0
rclavicle -8.26451e-14 4.73549e-15 0
rhumerus -49.2883 -9.18367 -82.5486
rradius 90.2964 0 0
rwrist -3.53849 0 0
rhand -38.4476 -46.7048 0
rfingers 7.12502 0 0
rthumb -11.466 -436.259 0
172
root 6.36735 16.0926 -25.6103 4.02744 27.5374 1.32474
lfemur -24.8978 27.809 -12.5949
ltibia 41.8509 0 0
lfoot -11.8157 3.38908 0
ltoes -2.3614 0 0
rfemur -18.507 -4.06263 -5.22562
rtibia 54.1759 0 0
rfoot 1.81069 -26.5983 0
rtoes 42.9377 0 0
lowerback 0.600813 -4.04905 -0.871241
upperback 0.0018826 -5.41155 -3.17925
thorax -0.52678 -2.70376 -2.69793
lowerneck -9.59708 -7.43665 -0.733699
upperneck 2.09118 -10.1038 5.37117
head 2.67886 -4.84956 1.30929
lclavicle -7.40721e-14 5.56597e-15 0
lhumerus -51.0484 -42.2267 115.788
lradius 52.1181 0 0
lwrist 14.9963 0 0
lhand 38.1148 28.373 0
lfingers 7.12502 0 0
lthumb 60.8104 41.2387 0
rclavicle -7.40721e-14 5.56597e-15 0
rhumerus -49.7354 -6.18228 -84.1171
rradius 90.9019 0 0
rwrist -3.03066 0 0
rhand -35.8869 -43.2823 0
rfingers 7.12502 0 0
rthumb -8.99544 -432.944 0
173
root 6.30031 16.0929 -25.5855 4.12897 26.6765 1.29283
lfemur -24.3627 26.2945 -10.8735
ltibia 41.7649 0 0
lfoot -13.214 0.709029 0
ltoes -7.82879 0 0
rfemur -17.6179 -4.31193 -5.27739
rtibia 51.6946 0 0
rfoot -0.566838 -26.863 0
rtoes 43.1441 0 0
lowerback 0.260569 -3.70139 -0.681372
upperback -0.0185406 -4.93868 -3.47902
thorax -0.384644 -2.46839 -3.14224
lowerneck -9.6622 -7.4408 -0.388457
upperneck 2.23282 -10.1591 5.39516
head 2.72096 -4.86858 1.25109
lclavicle -6.54992e-14 6.39645e-15 0
lhumerus -51.5622 -42.5192 115.889
lradius 52.0626 0 0
lwrist 14.8852 0 0
lhand 38.4665 28.3473 0
lfingers 7.12502 0 0
lthumb 61.1082 40.8782 0
rclavicle -6.54992e-14 6.39645e-15 0
rhumerus -50.1825 -3.18089 -85.6856
rradius 91.5074 0 0
rwrist -2.52283 0 0
rhand -33.3261 -39.8599 0
rfingers 7.12502 0 0
rthumb -6.52488 -429.629 0
174
root 6.23542 16.0932 -25.5615 4.22726 25.843 1.26194
lfemur -23.8446 24.8283 -9.20697
ltibia 41.6817 0 0
lfoot -14.5678 -1.88549 0
ltoes -13.1217 0 0
rfemur -16.7571 -4.55328 -5.3275
rtibia 49.2924 0 0
rfoot -2.86849 -27.1193 0
rtoes 43.344 0 0
lowerback -0.0688164 -3.36483 -0.497563
upperback -0.038312 -4.4809 -3.76922
thorax -0.247045 -2.24054 -3.57238
lowerneck -9.72525 -7.44482 -0.0542336
upperneck 2.36995 -10.2127 5.41838
head 2.76172 -4.887 1.19475
lclavicle -5.71998e-14 7.20042e-15 0
lhumerus -52.0597 -42.8024 115.986
lradius 52.0088 0 0
lwrist 14.7777 0 0
lhand 38.8069 28.3224 0
lfingers 7.12502 0 0
lthumb 61.3965 40.5291 0
rclavicle -5.71998e-14 7.20042e-15 0
rhumerus -50.6154 -0.275285 -87.2041
rradius 92.0935 0 0
rwrist -2.0312 0 0
rhand -30.847 -36.5467 0
rfingers 7.12502 0 0
rthumb -4.13318 -426.42 0
175
root 6.1748 16.0935 -25.5391 4.31907 25.0645 1.23308
lfemur -23.3607 23.4587 -7.65034
ltibia 41.604 0 0
lfoot -15.8323 -4.30894 0
ltoes -18.0656 0 0
rfemur -15.9531 -4.77871 -5.37431
rtibia 47.0487 0 0
rfoot -5.01839 -27.3587 0
rtoes 43.5307 0 0
lowerback -0.376484 -3.05046 -0.325873
upperback -0.0567798 -4.05331 -4.04029
thorax -0.118518 -2.02771 -3.97416
lowerneck -9.78414 -7.44858 0.257953
upperneck 2.49803 -10.2627 5.44007
head 2.79979 -4.9042 1.14212
lclavicle -4.94477e-14 7.95139e-15 0
lhumerus -52.5243 -43.0669 116.077
lradius 51.9585 0 0
lwrist 14.6773 0 0
lhand 39.1248 28.2991 0
lfingers 7.12502 0 0
lthumb 61.6658 40.203 0
rclavicle -4.94477e-14 7.95139e-15 0
rhumerus -51.0197 2.43874 -88.6224
rradius 92.641 0 0
rwrist -1.57199 0 0
rhand -28.5314 -33.452 0
rfingers 7.12502 0 0
rthumb -1.89917 -423.423 0
176
root 6.10246 16.0823 -25.516 4.54043 23.9777 1.38477
lfemur -21.8826 20.5475 -6.03599
ltibia 39.416 0 0
lfoot -14.1531 -7.57468 0
ltoes -8.58036 0 0
rfemur -15.956 -4.93805 -5.58027
rtibia 46.2695 0 0
rfoot -6.95107 -25.8169 0
rtoes 42.8993 0 0
lowerback -0.69725 -2.90997 -0.416532
upperback -0.0620218 -3.85099 -4.28708
thorax 0.061551 -1.92465 -4.19519
lowerneck -10.055 -7.19245 0.543785
upperneck 2.50994 -9.96354 5.40556
head 2.83024 -4.74849 1.09215
lclavicle -4.12575e-14 7.45075e-15 0
lhumerus -52.6542 -42.9617 115.704
lradius 52.1465 0 0
lwrist 15.5573 0 0
lhand 38.8293 28.7926 0
lfingers 7.12502 0 0
lthumb 61.4157 40.9791 0
rclavicle -4.12575e-14 7.45075e-15 0
rhumerus -52.0595 5.55238 -89.4134
rradius 94.7493 0 0
rwrist -1.5874 0 0
rhand -21.7884 -29.8459 0
rfingers 7.12502 0 0
rthumb 4.56986 -419.107 0
177
root 6.02501 16.0703 -25.4912 4.77741 22.8143 1.54717
lfemur -20.3003 17.4308 -4.30769
ltibia 37.0736 0 0
lfoot -12.3554 -11.0709 0
ltoes 1.57444 0 0
rfemur -15.9591 -5.10863 -5.80076
rtibia 45.4354 0 0
rfoot -9.02018 -24.1662 0
rtoes 42.2233 0 0
lowerback -1.04066 -2.75956 -0.513591
upperback -0.0676338 -3.6344 -4.55129
thorax 0.254331 -1.81431 -4.43183
lowerneck -10.3449 -6.91824 0.849794
upperneck 2.52269 -9.64326 5.36862
head 2.86283 -4.58179 1.03865
lclavicle -3.24892e-14 6.91476e-15 0
lhumerus -52.7932 -42.849 115.305
lradius 52.3478 0 0
lwrist 16.4994 0 0
lhand 38.5129 29.321 0
lfingers 7.12502 0 0
lthumb 61.148 41.81 0
rclavicle -3.24892e-14 6.91476e-15 0
rhumerus -53.1728 8.8858 -90.2602
rradius 97.0065 0 0
rwrist -1.60391 0 0
rhand -14.5695 -25.9853 0
rfingers 7.12502 0 0
rthumb 11.4955 -414.487 0
